<?xml version="1.0"?>
<svg id="Calque_1" data-name="Calque 1" xmlns="http://www.w3.org/2000/svg" viewBox="0 0 515 117.36" width="515" height="117.36" fill="#ae956a">
  <defs>
    
  </defs>
  <path class="cls-1" d="M335.53,1.94c-.33,25.26.21,50.45,3.72,75.63h-4.54V.29c.84,0,1.68,0,2.53,0,.89,0,1.77.03,2.66-.01.57-.03.86.13,1.06.73,3.47,10.57,6.97,21.14,10.47,31.7,1.65,4.97,3.3,9.94,4.95,14.9.05.15.11.29.24.62.73-2.33,1.4-4.49,2.07-6.66,4.16-13.51,8.33-27.01,12.47-40.52.19-.61.44-.81,1.08-.79,1.73.05,3.47.02,5.26.02v77.23h-5.64V2.28c-.07-.01-.14-.03-.2-.04-5.71,18.79-11.42,37.58-17.13,56.36-.05.01-.11.02-.16.03-6.28-18.9-12.56-37.79-18.83-56.69Z"></path>
  <path class="cls-1" d="M228.9,37.37c2.38.45,4.81.71,7.13,1.37,5.51,1.57,8.93,5.26,10.11,10.85.63,2.99,1.03,6.03,1.34,9.07.59,5.63,1.34,11.22,3.01,16.66.22.73.53,1.43.84,2.26-1.98,0-3.91.02-5.83-.03-.22,0-.54-.37-.62-.62-.54-1.88-1.2-3.74-1.51-5.66-.71-4.46-1.23-8.96-1.86-13.44-.51-3.63-.94-7.28-1.67-10.86-.94-4.58-3.94-7.36-8.43-8.47-3.85-.96-7.8-.57-11.8-.68v39.71h-5.74V.25c1.12,0,2.22,0,3.32,0,3.21.02,6.42-.03,9.62.07,4.64.15,9.19.83,13.36,3.05,5.01,2.67,7.64,6.93,8.31,12.48.41,3.39.23,6.73-1.01,9.95-1.81,4.72-5.31,7.76-9.9,9.66-2.65,1.1-5.43,1.65-8.27,1.97-.15.02-.31.04-.46.07l.04-.13ZM219.66.89v36.76c3.36-.24,6.66-.25,9.89-.75,5.84-.91,9.96-4.2,11.98-9.81,1.97-5.48,1.94-11.04.03-16.54-1.31-3.79-3.9-6.49-7.56-8.13-1.88-.85-3.86-1.41-5.91-1.49-2.81-.11-5.62-.03-8.44-.03Z"></path>
  <path class="cls-1" d="M96.2.29c1.08,0,2.1,0,3.12,0,3.9,0,7.8-.06,11.7.04,5.05.13,9.88,1.17,14.17,3.98,5.62,3.68,8.22,8.96,8.15,15.63-.09,8.93-5.76,15.37-14.44,17.99-3.31,1-6.72,1.27-10.16,1.29-2.24.01-4.48,0-6.8,0v38.29h-5.74V.29ZM101.94,38.62c3.24,0,6.41.21,9.53-.04,6.34-.52,11.07-3.68,13.99-9.35,2.2-4.27,2.52-8.84,1.87-13.54-1.16-8.45-7.8-14.55-16.36-14.87-2.82-.11-5.64-.06-8.46-.09-.19,0-.37.04-.58.07v37.83Z"></path>
  <path class="cls-1" d="M146.23,39.22v38.3h-5.7V.34c.28-.02.52-.04.76-.04,4.7,0,9.41-.07,14.11.04,5.13.12,10.03,1.22,14.37,4.13,5.47,3.68,7.98,8.9,7.92,15.42-.06,5.42-2.02,10.01-6.14,13.6-3.21,2.79-7.01,4.34-11.15,5.13-4,.76-8.04.58-12.08.61-.66,0-1.32,0-2.08,0ZM146.26,38.62c3.24,0,6.43.19,9.58-.04,5.4-.4,9.78-2.85,12.8-7.39,3.64-5.47,4.12-11.5,2.53-17.71-1.78-7.02-7.16-11.74-14.33-12.47-3.42-.35-6.9-.19-10.35-.26-.07,0-.14.06-.23.1v37.77Z"></path>
  <path class="cls-1" d="M438.04,77.53h-4.55V.34c.26-.02.52-.05.78-.05,1.63,0,3.27.03,4.9-.02.67-.02,1,.17,1.27.83,3.34,8.22,6.72,16.43,10.08,24.64,5.14,12.55,10.29,25.09,15.43,37.64.12.29.25.58.52.85v-.95c0-20.59,0-41.17,0-61.76,0-.25-.05-.51.02-.74.05-.18.24-.33.37-.49.11.15.26.29.31.46.05.18.01.38.01.58,0,25.06,0,50.12,0,75.19v.92c-.69.37-.81-.15-.99-.57-3.12-7.36-6.24-14.72-9.36-22.08-7.4-17.46-14.81-34.92-22.22-52.38-.1-.25-.22-.49-.42-.95-.31,25.55.27,50.83,3.84,76.06Z"></path>
  <path class="cls-1" d="M491.59.8c-6.64.24-12.32,2.58-17.6,6.35V.34h41.01v6.85c-5.36-3.46-10.92-6.17-17.49-6.38v76.71h-5.92V.8Z"></path>
  <path class="cls-1" d="M272.25.81v76.71h-5.85V.81c-6.62.2-12.34,2.57-17.66,6.36V.34h41.02v6.84c-5.36-3.47-10.92-6.17-17.52-6.37Z"></path>
  <path class="cls-1" d="M.97,77.5V.34h5.7v76.82c1.98-.17,3.87-.3,5.75-.49,4.28-.44,8.28-1.81,12.12-3.72,2.1-1.04,4.27-1.93,6.41-2.89.22-.1.45-.18.73-.29v7.73H.97Z"></path>
  <path class="cls-1" d="M32.01,20.16c3.57-2.96,4.62-6.91,4.75-11.36-.17.06-.27.07-.35.13-1.49,1.06-3.02.82-4.12-.64-1.32-1.75-1.46-4.63-.33-6.5.68-1.12,1.66-1.76,3-1.73,1.36.04,2.26.78,2.83,1.97.85,1.8,1,3.72.91,5.66-.17,3.64-1.14,7.03-3.51,9.87-.75.9-1.75,1.58-2.65,2.35-.14.12-.36.17-.54.25Z"></path>
  <path class="cls-1" d="M302.08,1.07h29.28c-.54,2.29-1.07,4.53-1.62,6.88-1.97-1.01-3.86-1.9-5.68-2.94-3.75-2.13-7.83-2.95-12.06-3.28-1.22-.09-2.45-.15-3.67-.25-.54-.05-.77.14-.89.68-1.68,7.33-3.38,14.66-5.08,21.99-.99,4.29-1.98,8.57-2.99,12.91,6.82.05,13.31-1.6,19.96-3.45-.58,2.49-1.12,4.82-1.68,7.22-2.43-.66-4.79-1.27-7.13-1.95-3.43-.99-6.94-1.27-10.47-1.39-.46-.02-.73.06-.86.6-2.95,12.75-5.92,25.5-8.89,38.25-.02.08,0,.17,0,.38,1.69-.12,3.34-.24,4.99-.34,6.15-.39,11.71-2.75,17.29-5.08,1.48-.62,2.97-1.19,4.65-1.87-.62,2.64-1.19,5.12-1.79,7.66h-30.96c5.87-25.34,11.73-50.67,17.59-76.02Z"></path>
  <path class="cls-1" d="M399.64,1.07h29.28c-.54,2.29-1.07,4.53-1.62,6.88-1.97-1.01-3.86-1.9-5.68-2.94-3.75-2.13-7.83-2.95-12.06-3.28-1.22-.09-2.45-.15-3.67-.25-.54-.05-.77.14-.89.68-1.68,7.33-3.38,14.66-5.08,21.99-.99,4.29-1.98,8.57-2.99,12.91,6.82.05,13.31-1.6,19.96-3.45-.58,2.49-1.12,4.82-1.68,7.22-2.43-.66-4.79-1.27-7.13-1.95-3.43-.99-6.94-1.27-10.47-1.39-.46-.02-.73.06-.86.6-2.95,12.75-5.92,25.5-8.89,38.25-.02.08,0,.17,0,.38,1.69-.12,3.34-.24,4.99-.34,6.15-.39,11.71-2.75,17.29-5.08,1.48-.62,2.97-1.19,4.65-1.87-.62,2.64-1.19,5.12-1.79,7.66h-30.96c5.87-25.34,11.73-50.67,17.59-76.02Z"></path>
  <path class="cls-1" d="M200.71,77.5h-5.7v-27.31c-.35-.02-.63-.05-.92-.05-5.45,0-10.9.01-16.35-.02-.67,0-.97.24-1.24.83-3.82,8.45-6.91,17.14-8.99,26.19-.03.11-.06.22-.1.37h-4.17c12.2-25.88,24.38-51.69,36.55-77.5.08.02.16.04.25.06.22,25.8.44,51.59.67,77.44ZM195.07,11.81c-.06-.01-.12-.03-.18-.04-5.88,12.54-11.76,25.08-17.72,37.78.49,0,.8,0,1.12,0,5.21,0,10.42-.02,15.63.02.89,0,1.13-.22,1.13-1.13-.02-11.93,0-23.86.01-35.79,0-.28,0-.56,0-.84Z"></path>
  <path class="cls-1" d="M86.6,77.5h-5.7v-27.31c-.35-.02-.63-.05-.92-.05-5.45,0-10.9.01-16.35-.02-.67,0-.97.24-1.24.83-3.82,8.45-6.91,17.14-8.99,26.19-.03.11-.06.22-.1.37h-4.17C61.34,51.62,73.52,25.81,85.69,0c.08.02.16.04.25.06.22,25.8.44,51.59.67,77.44ZM80.96,11.81c-.06-.01-.12-.03-.18-.04-5.88,12.54-11.76,25.08-17.72,37.78.49,0,.8,0,1.12,0,5.21,0,10.42-.02,15.63.02.89,0,1.13-.22,1.13-1.13-.02-11.93,0-23.86.01-35.79,0-.28,0-.56,0-.84Z"></path>
  <g>
    <path class="cls-1" d="M8.72,111.05h-.05c-.25-.75-.6-1.43-1.06-2.03s-.99-.9-1.59-.9h-1.08v9.05h-1.17v-9.05h-1.05c-.6,0-1.13.3-1.59.89s-.81,1.27-1.06,2.04h-.05l.56-3.12h7.59l.57,3.12Z"></path>
    <path class="cls-1" d="M13.68,117.17c.08-3.49.08-6.57,0-9.24h1.19v4.51h5.61v-4.51h1.21c-.14,3.02-.14,6.1,0,9.24h-1.21v-4.53h-5.61v4.53h-1.19Z"></path>
    <path class="cls-1" d="M27.37,107.94h5.77l1.83,3.6c-.12-.12-.28-.33-.5-.63s-.41-.55-.59-.77c-.17-.22-.43-.46-.76-.74-.33-.27-.69-.5-1.07-.67-.38-.17-.87-.32-1.47-.44-.6-.12-1.28-.18-2.01-.18v4.36h4.05v.2h-4.05v4.35c.62.03,1.2-.03,1.75-.18.54-.15,1.04-.38,1.51-.69.46-.31.88-.64,1.25-.99.37-.35.76-.78,1.17-1.29l-1.68,3.31h-5.18v-9.24Z"></path>
    <path class="cls-1" d="M39.85,114.99c-.49.95-.48,1.68.03,2.19h-1.41l4.12-8.34c-.11-.16-.33-.33-.67-.51-.34-.18-.54-.31-.61-.39h2.16l4.79,9.24h-1.45l-1.71-3.37h-4.67l-.57,1.19ZM42.7,109.05l-2.19,4.55h4.48l-2.29-4.55Z"></path>
    <path class="cls-1" d="M102.37,107.94h1.72l4.85,5.45,3.87-5.45h1.29v9.24h-1.27v-8.86l-4.47,6.25-4.67-5.05v7.67h-.21v-7.72c0-.2-.13-.46-.39-.78-.26-.31-.5-.56-.73-.73h0Z"></path>
    <path class="cls-1" d="M129.17,112.15c.14,1.32-.22,2.49-1.07,3.49-.86,1-1.96,1.55-3.3,1.66-1.35.1-2.55-.28-3.59-1.13-1.05-.85-1.64-1.94-1.78-3.27-.13-1.32.23-2.48,1.09-3.48.86-1,1.96-1.56,3.31-1.67,1.34-.1,2.54.28,3.58,1.14,1.05.86,1.63,1.94,1.77,3.26ZM128.29,112.15c.12-1.18-.19-2.18-.93-2.98-.75-.8-1.59-1.17-2.53-1.09-1.04.08-2.01.58-2.91,1.49-.9.91-1.41,1.97-1.55,3.18-.13,1.2.14,2.21.83,3.03.68.82,1.49,1.19,2.41,1.11,1.07-.08,2.09-.59,3.04-1.53s1.5-2.01,1.64-3.22Z"></path>
    <path class="cls-1" d="M142.27,117.36c-.33-.44-.85-1.02-1.57-1.74-.72-.71-1.2-1.22-1.44-1.51l-4.95-4.8v7.87h-.21v-7.96c-.07-.15-.18-.3-.32-.44s-.31-.29-.51-.45c-.2-.16-.34-.28-.43-.37h0s2-.01,2-.01l7.22,7.11.07-7.11h.25l-.12,9.43Z"></path>
    <path class="cls-1" d="M155.89,111.05h-.05c-.25-.75-.6-1.43-1.06-2.03-.46-.6-.99-.9-1.59-.9h-1.08v9.05h-1.17v-9.05h-1.05c-.6,0-1.13.3-1.59.89-.46.6-.81,1.27-1.06,2.04h-.05l.56-3.12h7.59l.57,3.12Z"></path>
    <path class="cls-1" d="M159.93,114.99c-.49.95-.48,1.68.03,2.19h-1.41l4.12-8.34c-.11-.16-.33-.33-.67-.51-.34-.18-.54-.31-.61-.39h2.16l4.79,9.24h-1.45l-1.71-3.37h-4.67l-.57,1.19ZM162.79,109.05l-2.19,4.55h4.48l-2.29-4.55Z"></path>
    <path class="cls-1" d="M172.14,107.94h1.35v4.29c.02,1.63.27,2.84.77,3.63.49.79,1.28,1.19,2.37,1.19,1.21,0,2.22-.47,3.03-1.4.81-.93,1.21-2.07,1.21-3.41v-4.29h.25v4.29c0,1.34-.42,2.52-1.27,3.54s-1.92,1.53-3.23,1.53c-.6,0-1.15-.09-1.67-.27s-.99-.46-1.42-.83c-.43-.37-.77-.87-1.02-1.51-.25-.64-.37-1.37-.37-2.21v-4.55Z"></path>
    <path class="cls-1" d="M194.82,111.05h-.05c-.25-.75-.6-1.43-1.06-2.03-.46-.6-.99-.9-1.59-.9h-1.08v9.05h-1.17v-9.05h-1.05c-.6,0-1.13.3-1.59.89-.46.6-.81,1.27-1.06,2.04h-.05l.56-3.12h7.59l.57,3.12Z"></path>
    <path class="cls-1" d="M199.79,115.8c.09-2.47.09-4.63,0-6.49l-.07-1.37h1.28l-.08,1.37c-.05,2.2-.05,4.36,0,6.49l.08,1.37h-1.28l.07-1.37Z"></path>
    <path class="cls-1" d="M256.14,112.95c.11-.32.27-.64.47-.95s.49-.61.83-.89c.34-.28.72-.5,1.13-.65.41-.15.89-.2,1.44-.13.55.06,1.11.25,1.69.57l.04-3.51,1.04-.97v8.72c0,1.24.27,1.91.8,2.03-1.17,0-1.81-.39-1.91-1.17-.63.88-1.52,1.32-2.68,1.32-.45,0-.86-.09-1.25-.28-.39-.19-.7-.43-.94-.73-.24-.3-.44-.65-.6-1.03-.16-.39-.24-.78-.23-1.17,0-.4.06-.78.17-1.15ZM257.46,111.6c-.32.36-.5.83-.54,1.42-.04.59.04,1.16.24,1.71.2.55.54,1.02,1.02,1.42.48.4,1.03.6,1.67.6.73,0,1.33-.33,1.81-.99v-.11l.04-3.53c-.38-.44-.83-.78-1.33-1.03s-1.02-.34-1.56-.28c-.54.06-.99.33-1.35.79Z"></path>
    <path class="cls-1" d="M269.65,108.51c0,.13,0,.29-.02.47-.02.18-.13.45-.31.81-.18.36-.45.67-.79.94h-.07s.04-.04.07-.06.09-.07.17-.15c.08-.08.15-.16.21-.23.06-.07.12-.16.16-.27.04-.1.06-.2.06-.29s-.04-.19-.13-.28-.2-.18-.36-.25c-.31-.12-.47-.35-.47-.68,0-.19.07-.35.22-.5.15-.15.32-.22.53-.22.19,0,.35.07.5.21s.22.31.22.49Z"></path>
    <path class="cls-1" d="M274.25,117.17c.08-3.49.08-6.57,0-9.24h1.19v4.51h5.61v-4.51h1.21c-.14,3.02-.14,6.1,0,9.24h-1.21v-4.53h-5.61v4.53h-1.19Z"></path>
    <path class="cls-1" d="M288.51,114.99c-.49.95-.48,1.68.03,2.19h-1.41l4.12-8.34c-.11-.16-.33-.33-.67-.51-.34-.18-.54-.31-.61-.39h2.16l4.78,9.24h-1.45l-1.71-3.37h-4.67l-.57,1.19ZM291.37,109.05l-2.19,4.55h4.48l-2.29-4.55Z"></path>
    <path class="cls-1" d="M309.06,117.17c-.13-.26-.38-.49-.77-.69-.39-.2-.81-.4-1.26-.57-.45-.18-.89-.39-1.34-.64-.44-.25-.8-.6-1.1-1.07-.29-.46-.44-1.02-.44-1.68v-.25h1.61c.28-.01.51-.02.71-.05.2-.02.4-.07.62-.15.21-.08.39-.19.53-.33.14-.14.25-.33.33-.57.09-.24.13-.52.13-.85,0-.52-.12-.96-.35-1.3-.23-.34-.52-.58-.85-.7-.33-.12-.71-.19-1.13-.19h-2.85v9.04h-1.21v-9.24h4.36c.93,0,1.73.23,2.39.68s.99,1.01.99,1.67c0,.56-.34,1.07-1.01,1.54-.68.47-1.38.7-2.12.71h-2.03c0,.62.29,1.11.87,1.46s1.42.64,2.52.86c1.38.36,2.13,1.13,2.24,2.32h-.83Z"></path>
    <path class="cls-1" d="M315.75,112.07c0,.86.15,1.67.47,2.43.31.76.76,1.37,1.34,1.84s1.22.71,1.93.71c.91,0,1.71-.17,2.39-.51.68-.34,1.45-.94,2.3-1.79l-.19.36c-.23.25-.48.49-.75.71-.27.23-.6.46-.99.71-.39.25-.82.45-1.3.59-.48.15-.97.22-1.47.22-1.45,0-2.68-.47-3.7-1.4s-1.53-2.04-1.53-3.33c0-.66.13-1.28.4-1.87.27-.59.62-1.08,1.07-1.48.45-.4.97-.74,1.57-1.01.59-.27,1.22-.43,1.89-.48s1.34,0,2.02.13c.28.05.56.12.82.2.26.08.52.17.79.27.26.1.41.15.43.16l.05,2.32c-.36-.73-.8-1.33-1.33-1.79s-1.07-.78-1.62-.94c-.55-.16-1.11-.19-1.66-.1-.56.09-1.05.31-1.48.64s-.78.8-1.05,1.39c-.27.6-.4,1.27-.4,2.03Z"></path>
    <path class="cls-1" d="M338.29,112.15c.14,1.32-.22,2.49-1.07,3.49s-1.96,1.55-3.3,1.66c-1.35.1-2.55-.28-3.59-1.13-1.04-.85-1.64-1.94-1.78-3.27-.13-1.32.23-2.48,1.09-3.48.86-1,1.96-1.56,3.31-1.67,1.34-.1,2.54.28,3.58,1.14,1.04.86,1.63,1.94,1.77,3.26ZM337.41,112.15c.12-1.18-.19-2.18-.93-2.98-.75-.8-1.59-1.17-2.53-1.09-1.04.08-2.01.58-2.91,1.49-.9.91-1.41,1.97-1.55,3.18-.13,1.2.14,2.21.83,3.03.68.82,1.49,1.19,2.41,1.11,1.07-.08,2.09-.59,3.04-1.53s1.5-2.01,1.64-3.22Z"></path>
    <path class="cls-1" d="M343.44,107.94h1.35v4.29c.02,1.63.27,2.84.77,3.63.49.79,1.28,1.19,2.37,1.19,1.21,0,2.22-.47,3.03-1.4.81-.93,1.21-2.07,1.21-3.41v-4.29h.25v4.29c0,1.34-.42,2.52-1.27,3.54-.84,1.02-1.92,1.53-3.22,1.53-.6,0-1.15-.09-1.67-.27-.52-.18-.99-.46-1.42-.83-.43-.37-.77-.87-1.02-1.51-.25-.64-.37-1.37-.37-2.21v-4.55Z"></path>
    <path class="cls-1" d="M365.1,117.17c-.13-.26-.38-.49-.77-.69-.39-.2-.81-.4-1.26-.57-.45-.18-.89-.39-1.34-.64-.44-.25-.8-.6-1.1-1.07-.29-.46-.44-1.02-.44-1.68v-.25h1.61c.28-.01.51-.02.71-.05.2-.02.4-.07.62-.15.21-.08.39-.19.53-.33.14-.14.25-.33.33-.57.09-.24.13-.52.13-.85,0-.52-.12-.96-.35-1.3-.23-.34-.52-.58-.85-.7-.33-.12-.71-.19-1.13-.19h-2.85v9.04h-1.21v-9.24h4.36c.93,0,1.73.23,2.39.68s.99,1.01.99,1.67c0,.56-.34,1.07-1.01,1.54-.68.47-1.38.7-2.12.71h-2.03c0,.62.29,1.11.87,1.46s1.42.64,2.52.86c1.38.36,2.13,1.13,2.24,2.32h-.83Z"></path>
    <path class="cls-1" d="M379,111.05h-.05c-.25-.75-.6-1.43-1.06-2.03s-.99-.9-1.59-.9h-1.08v9.05h-1.17v-9.05h-1.05c-.6,0-1.13.3-1.59.89-.46.6-.81,1.27-1.06,2.04h-.05l.56-3.12h7.58l.57,3.12Z"></path>
    <path class="cls-1" d="M434.38,107.94h1.2v9.08c.62.03,1.2-.03,1.73-.18.53-.15,1.02-.38,1.47-.69.45-.31.85-.64,1.2-.99.35-.34.73-.77,1.15-1.29l-1.68,3.31h-5.07v-9.24Z"></path>
    <path class="cls-1" d="M447.2,116.87v-3.85s-5.04-5.08-5.04-5.08h1.56l4.67,4.8,4.21-4.8h.25l-4.35,4.96v3.97l.04.31h-1.4l.05-.31Z"></path>
    <path class="cls-1" d="M456.15,112.6c0-.63.1-1.21.3-1.75.2-.53.47-.98.82-1.34.35-.36.76-.67,1.22-.94s.97-.46,1.51-.57,1.1-.18,1.67-.22,1.16,0,1.73.12c.27.05.55.12.81.2.27.08.53.17.78.26.25.09.4.15.45.17l.07,2.32c-.26-.74-.64-1.34-1.14-1.82-.5-.48-1.04-.79-1.63-.95s-1.18-.18-1.8-.06c-.62.12-1.18.36-1.67.73-.5.37-.91.89-1.23,1.56s-.48,1.43-.48,2.29c0,1.29.31,2.35.92,3.19s1.45,1.27,2.52,1.31c.75,0,1.5-.41,2.27-1.21v-3.15s-3.84-.09-3.84-.09v-.13l5.07-.07v4.72c-.09-.41-.26-.72-.51-.95-.25-.22-.49-.25-.71-.08-.72.78-1.47,1.18-2.27,1.2-1.4-.03-2.56-.49-3.48-1.41-.91-.91-1.37-2.02-1.37-3.33Z"></path>
    <path class="cls-1" d="M470.92,115.8c.09-2.47.09-4.63,0-6.49l-.07-1.37h1.28l-.08,1.37c-.05,2.2-.05,4.36,0,6.49l.08,1.37h-1.28l.07-1.37Z"></path>
    <path class="cls-1" d="M486.53,117.36c-.33-.44-.85-1.02-1.57-1.74-.72-.71-1.2-1.22-1.44-1.51l-4.95-4.8v7.87h-.21v-7.96c-.07-.15-.18-.3-.32-.44s-.31-.29-.51-.45c-.19-.16-.34-.28-.43-.37h0s2-.01,2-.01l7.22,7.11.07-7.11h.25l-.12,9.43Z"></path>
    <path class="cls-1" d="M501.43,112.15c.14,1.32-.22,2.49-1.07,3.49-.86,1-1.96,1.55-3.3,1.66-1.35.1-2.55-.28-3.59-1.13s-1.64-1.94-1.78-3.27c-.13-1.32.23-2.48,1.09-3.48.86-1,1.96-1.56,3.31-1.67,1.34-.1,2.54.28,3.58,1.14,1.04.86,1.63,1.94,1.77,3.26ZM500.55,112.15c.13-1.18-.18-2.18-.93-2.98-.75-.8-1.59-1.17-2.53-1.09-1.04.08-2.01.58-2.91,1.49s-1.41,1.97-1.55,3.18c-.13,1.2.14,2.21.83,3.03.68.82,1.49,1.19,2.41,1.11,1.07-.08,2.09-.59,3.04-1.53.95-.94,1.5-2.01,1.64-3.22Z"></path>
    <path class="cls-1" d="M510.48,117.36c-.25,0-.49,0-.72-.01-.23,0-.43-.02-.59-.03-.16,0-.34-.03-.54-.07-.19-.04-.34-.06-.43-.07-.09-.01-.23-.05-.41-.11s-.3-.09-.36-.11c-.05-.01-.18-.06-.37-.13-.2-.07-.31-.11-.35-.12l-.43-3.57h.08c.06.62.19,1.17.37,1.65.18.47.41.86.67,1.16.26.3.57.54.91.73.35.19.69.32,1.05.39.35.07.72.1,1.11.09.45,0,.83-.07,1.15-.18s.57-.26.73-.44c.16-.18.28-.36.35-.53.07-.17.11-.35.11-.53,0-.33-.12-.62-.35-.89-.23-.26-.53-.49-.91-.67-.37-.19-.78-.36-1.23-.53-.45-.17-.9-.35-1.35-.53-.45-.19-.87-.39-1.25-.61s-.68-.5-.92-.84c-.23-.34-.36-.72-.36-1.15,0-.17.02-.35.07-.53s.14-.4.29-.63c.15-.23.34-.44.58-.62.23-.18.56-.34.98-.47.42-.13.91-.21,1.46-.23.53-.02,1.09,0,1.67.03.58.04,1.03.08,1.35.13l.48.08.37,3.11h-.07c-.05-.6-.2-1.07-.43-1.41-.24-.35-.58-.66-1.02-.95-.63-.41-1.35-.66-2.16-.75-.81-.09-1.5,0-2.07.29-.57.28-.85.69-.83,1.23.02.49.25.9.71,1.23.45.33,1,.61,1.63.82.63.21,1.26.44,1.89.67.63.23,1.17.56,1.62.99.45.43.68.95.69,1.57,0,.84-.29,1.47-.88,1.89-.6.41-1.36.63-2.29.65Z"></path>
  </g>
</svg>