<?xml version="1.0"?>
<svg id="Calque_1" xmlns="http://www.w3.org/2000/svg" version="1.1" viewBox="0 0 539.17 182.52" width="539.17" height="182.52">
  
  
  <g>
    <path fill="#cec2ba" d="M218.58,172.54c0-6.22,3.55-9.97,8.53-9.97,2.55,0,4.23,1.2,5.31,2.34l-1.41,1.56c-.91-.97-2.05-1.73-3.9-1.73-3.6,0-5.95,2.96-5.95,7.74s2.14,7.86,5.89,7.86c1.35,0,2.61-.41,3.31-1.12v-5.02h-3.81v-2.02h6.1v8.09c-1.2,1.23-3.26,2.23-5.75,2.23-4.84,0-8.33-3.7-8.33-9.98Z"></path>
    <path fill="#cec2ba" d="M237.97,162.92h11.91v2.08h-9.45v6.01h7.98v2.08h-7.98v6.98h9.74v2.08h-12.2v-19.24Z"></path>
    <path fill="#cec2ba" d="M254.63,162.92h2.7l6.16,12.08,1.85,3.99h.05c-.09-1.9-.32-4.08-.32-6.1v-9.97h2.35v19.24h-2.7l-6.16-12.08-1.85-3.99h-.06c.09,1.97.32,4.02.32,6.01v10.06h-2.35v-19.24Z"></path>
    <path fill="#cec2ba" d="M273.18,162.92h11.91v2.08h-9.45v6.01h7.98v2.08h-7.98v6.98h9.74v2.08h-12.2v-19.24ZM275.93,158.34l1.38-1.64,4.16,3.79-1.08,1.23-4.46-3.37Z"></path>
    <path fill="#cec2ba" d="M288.67,162.92h2.64l3.08,10.38c.68,2.26,1.14,4.11,1.85,6.34h.12c.7-2.23,1.2-4.08,1.85-6.34l3.08-10.38h2.53l-6.1,19.24h-2.88l-6.16-19.24Z"></path>
    <path fill="#cec2ba" d="M308.39,162.92h11.91v2.08h-9.45v6.01h7.98v2.08h-7.98v6.98h9.74v2.08h-12.2v-19.24Z"></path>
  </g>
  <g>
    <g>
      <path fill="#cec2ba" d="M213.97,128.87c-5.46,2.6-10.66,4.94-15.73,7.8v-11.7c-4.29,6.11-11.57,10.27-18.59,10.27-15.21,0-24.83-15.6-24.83-29.9,0-16.38,11.83-31.07,28.73-31.07,5.2,0,10.4,2.08,14.69,5.85v-38.87c0-3.38-.91-5.98-3.25-5.98-.78,0-1.82.39-2.99,1.17l-.78-1.04c5.07-2.47,11.05-5.46,15.73-9.36v96.98c0,3.9.78,5.85,3.12,5.85,1.04,0,2.08-.39,3.38-.91l.52.91ZM183.16,130.95c5.46.13,11.31-4.29,15.08-8.84v-28.21c0-9.88-8.71-17.29-17.68-17.29-14.17,0-17.68,16.25-17.68,27.17,0,12.87,5.72,26.78,20.28,27.17Z"></path>
      <path fill="#cec2ba" d="M267.16,82.6c1.17-3.12,0-5.2-3.64-5.59v-1.3c2.21.13,4.16.26,6.76.26,2.21,0,4.55-.13,6.63-.26v1.3c-3.9.39-6.63,3.25-8.58,8.71-1.69,4.29-3.38,8.58-5.07,12.87l-10.14,25.61c-1.69,4.29-3.38,8.58-5.07,12.87l-21.84-50.18c-2.21-5.98-5.59-9.35-9.62-9.87v-1.3c3.51.26,6.89.39,10.92.39,3.64,0,7.66-.13,10.79-.39v1.3c-3.51.39-5.59,2.47-4.03,5.72,5.07,11.83,10.01,23.14,14.95,34.97.78,1.69,1.56,2.47,2.08,2.47.91,0,1.56-1.17,2.34-3.12l13.52-34.45Z"></path>
      <path fill="#cec2ba" d="M292.39,133.81c-4.16,0-8.58.26-12.74.52v-1.3c4.68-.26,8.32-2.47,8.32-8.19v-36.26c0-3.51-.91-5.72-3.25-5.72-.78,0-1.82.26-2.99.78l-.65-1.17c5.07-2.34,10.92-5.72,15.6-9.23v51.61c0,5.72,3.51,7.93,8.32,8.19v1.3c-4.29-.26-8.58-.52-12.61-.52Z"></path>
      <path fill="#cec2ba" d="M337.51,99.37c9.1,2.73,18.59,6.24,18.85,17.03-.26,11.31-6.76,18.85-21.58,18.85-7.02,0-14.69-1.56-20.67-5.72.13-1.69.13-3.25.13-4.68,0-2.73-.13-5.59-.26-8.32l.78-.39c6.11,9.75,14.81,15.73,23.92,15.73,5.2,0,12.22-2.86,12.48-8.84.39-8.97-9.75-12.48-18.07-15.08-9.23-2.99-18.33-5.85-18.33-16.5,0-11.57,10.66-16.9,20.67-17.16,5.07,0,10.53,1.56,15.21,3.51,0,2.73.26,5.72.65,8.45l-.13.13c-5.85-5.72-12.48-9.1-18.71-9.1-4.94,0-11.96,3.9-11.96,9.1.26,7.66,8.71,10.27,17.03,13Z"></path>
      <path fill="#cec2ba" d="M423.31,104.18c0,16.64-13.13,31.2-29.9,31.2s-28.73-13.78-28.73-30.03,13.13-31.07,29.9-31.07,28.73,13.78,28.73,29.9ZM414.22,108.08c0-12.22-7.54-31.72-22.36-31.72-12.61,0-18.07,14.95-18.07,25.35,0,11.96,7.54,31.72,22.36,31.72,12.61,0,18.07-15.21,18.07-25.34Z"></path>
      <path fill="#cec2ba" d="M471.95,82.21c0,2.99-2.2,5.46-5.07,5.46-2.47,0-5.07-2.34-5.33-5.2-.13-2.21-2.47-3.64-5.46-3.64-4.68,0-11.57,4.03-11.57,15.08v30.94c0,5.72,3.64,7.93,8.32,8.19v1.3c-4.42-.26-8.32-.52-12.61-.52s-8.71.26-12.87.52v-1.3c4.81-.26,8.45-2.47,8.45-8.19v-36.14c0-4.55-2.08-7.28-6.5-5.07l-.65-1.04c5.2-2.6,10.79-5.33,15.86-9.23v10.53c4.16-5.33,11.44-9.88,17.55-9.88,4.16,0,9.87,3.38,9.87,8.19Z"></path>
      <path fill="#cec2ba" d="M505.11,150.58c-2.08,5.46-5.07,12.61-11.96,12.87-5.59.26-13-2.47-13.39-9.23-.13-2.86,1.3-6.11,3.9-6.37,3.77-.39,6.24.91,6.24,5.2,0,2.73-1.69,2.73-1.69,4.68,0,1.56,1.56,3.51,4.81,3.51,5.98,0,8.45-7.28,10.14-11.57,1.95-5.07,3.9-10.53,5.98-15.47l-20.8-47.32c-2.6-5.98-5.59-9.35-9.75-9.87v-1.3c3.9.13,7.8.39,11.7.39,3.38,0,7.15-.13,10.01-.39v1.3c-3.38.26-5.46,2.47-4.03,5.72,5.2,12.09,9.62,21.97,15.08,34.45.78,1.69,1.43,2.47,2.21,2.47.91,0,1.82-1.3,2.6-3.12,4.42-11.18,8.71-22.36,13.13-33.67,1.3-3.25-.26-5.46-3.64-5.85v-1.3c2.34.26,4.81.39,7.15.39,2.21,0,4.42-.13,6.37-.26v1.17c-3.77.39-6.63,3.25-8.58,8.71l-25.48,64.86Z"></path>
    </g>
    <g>
      <path fill="#cec2ba" d="M0,134.3V8.67h9.28v125.09c3.22-.27,6.3-.49,9.37-.8,6.97-.72,13.48-2.95,19.73-6.05,3.42-1.69,6.96-3.15,10.44-4.7.36-.16.73-.29,1.19-.47v12.58H0Z"></path>
      <path fill="#cec2ba" d="M50.54,40.93c5.81-4.83,7.52-11.26,7.74-18.5-.28.1-.45.12-.56.2-2.43,1.72-4.93,1.34-6.71-1.04-2.14-2.86-2.38-7.55-.53-10.59,1.11-1.83,2.7-2.87,4.89-2.81,2.22.06,3.68,1.26,4.6,3.2,1.38,2.93,1.63,6.05,1.48,9.22-.28,5.93-1.86,11.44-5.72,16.07-1.22,1.46-2.85,2.58-4.31,3.83-.24.2-.58.28-.87.41Z"></path>
      <path fill="#cec2ba" d="M139.44,134.3h-9.28v-43.06c-.56-.03-1.03-.09-1.49-.09-8.87,0-17.75.02-26.62-.03-1.1,0-1.58.38-2.02,1.35-6.22,13.76-11.26,26.49-14.64,41.22-.04.18-.1.36-.16.6h-9.27c19.87-42.14,39.69-84.17,59.51-126.2.13.03,2.76.06,2.89.1.36,42.01.72,84.01,1.09,126.1ZM130.25,27.33c-.1-.02-.19-.04-.29-.07-9.58,20.42-19.15,40.84-28.85,61.52.8,0,1.31,0,1.82,0,8.48,0,16.97-.04,25.45.03,1.46.01,1.85-.36,1.84-1.84-.04-19.43,0-38.85.02-58.28,0-.46,0-.91,0-1.37Z"></path>
    </g>
  </g>
  <path fill="#cec2ba" d="M298.11,53.07c0,3.76-2.6,6.61-5.72,6.61s-5.85-3.01-5.85-6.76,2.73-6.91,5.98-6.91,5.59,3.16,5.59,7.06Z"></path>
</svg>