<?xml version="1.0"?>
<svg id="Calque_1" data-name="Calque 1" xmlns="http://www.w3.org/2000/svg" viewBox="0 0 514.03 77.57" width="514.03" height="77.57">
  <defs>
    
  </defs>
  <path class="cls-1" d="M334.55,1.94c-.33,25.26.21,50.45,3.72,75.63h-4.54V.29c.84,0,1.68,0,2.53,0,.89,0,1.77.03,2.66-.01.57-.03.86.13,1.06.73,3.47,10.57,6.97,21.14,10.47,31.7,1.65,4.97,3.3,9.94,4.95,14.9.05.15.11.29.24.62.73-2.33,1.4-4.49,2.07-6.66,4.16-13.51,8.33-27.01,12.47-40.52.19-.61.44-.81,1.08-.79,1.73.05,3.47.02,5.26.02v77.23h-5.64V2.28c-.07-.01-.14-.03-.2-.04-5.71,18.79-11.42,37.58-17.13,56.36-.05.01-.11.02-.16.03-6.28-18.9-12.56-37.79-18.83-56.69Z"></path>
  <path class="cls-1" d="M227.93,37.37c2.38.45,4.81.71,7.13,1.37,5.51,1.57,8.93,5.26,10.11,10.85.63,2.99,1.03,6.03,1.34,9.07.59,5.63,1.34,11.22,3.01,16.66.22.73.53,1.43.84,2.26-1.98,0-3.91.02-5.83-.03-.22,0-.54-.37-.62-.62-.54-1.88-1.2-3.74-1.51-5.66-.71-4.46-1.23-8.96-1.86-13.44-.51-3.63-.94-7.28-1.67-10.86-.94-4.58-3.94-7.36-8.43-8.47-3.85-.96-7.8-.57-11.8-.68v39.71h-5.74V.25c1.12,0,2.22,0,3.32,0,3.21.02,6.42-.03,9.62.07,4.64.15,9.19.83,13.36,3.05,5.01,2.67,7.64,6.93,8.31,12.48.41,3.39.23,6.73-1.01,9.95-1.81,4.72-5.31,7.76-9.9,9.66-2.65,1.1-5.43,1.65-8.27,1.97-.15.02-.31.04-.46.07l.04-.13ZM218.69.89v36.76c3.36-.24,6.66-.25,9.89-.75,5.84-.91,9.96-4.2,11.98-9.81,1.97-5.48,1.94-11.04.03-16.54-1.31-3.79-3.9-6.49-7.56-8.13-1.88-.85-3.86-1.41-5.91-1.49-2.81-.11-5.62-.03-8.44-.03Z"></path>
  <path class="cls-1" d="M95.23.29c1.08,0,2.1,0,3.12,0,3.9,0,7.8-.06,11.7.04,5.05.13,9.88,1.17,14.17,3.98,5.62,3.68,8.22,8.96,8.15,15.63-.09,8.93-5.76,15.37-14.44,17.99-3.31,1-6.72,1.27-10.16,1.29-2.24.01-4.48,0-6.8,0v38.29h-5.74V.29ZM100.97,38.62c3.24,0,6.41.21,9.53-.04,6.34-.52,11.07-3.68,13.99-9.35,2.2-4.27,2.52-8.84,1.87-13.54-1.16-8.45-7.8-14.55-16.36-14.87-2.82-.11-5.64-.06-8.46-.09-.19,0-.37.04-.58.07v37.83Z"></path>
  <path class="cls-1" d="M145.26,39.22v38.3h-5.7V.34c.28-.02.52-.04.76-.04,4.7,0,9.41-.07,14.11.04,5.13.12,10.03,1.22,14.37,4.13,5.47,3.68,7.98,8.9,7.92,15.42-.06,5.42-2.02,10.01-6.14,13.6-3.21,2.79-7.01,4.34-11.15,5.13-4,.76-8.04.58-12.08.61-.66,0-1.32,0-2.08,0ZM145.28,38.62c3.24,0,6.43.19,9.58-.04,5.4-.4,9.78-2.85,12.8-7.39,3.64-5.47,4.12-11.5,2.53-17.71-1.78-7.02-7.16-11.74-14.33-12.47-3.42-.35-6.9-.19-10.35-.26-.07,0-.14.06-.23.1v37.77Z"></path>
  <path class="cls-1" d="M437.07,77.53h-4.55V.34c.26-.02.52-.05.78-.05,1.63,0,3.27.03,4.9-.02.67-.02,1,.17,1.27.83,3.34,8.22,6.72,16.43,10.08,24.64,5.14,12.55,10.29,25.09,15.43,37.64.12.29.25.58.52.85v-.95c0-20.59,0-41.17,0-61.76,0-.25-.05-.51.02-.74.05-.18.24-.33.37-.49.11.15.26.29.31.46.05.18.01.38.01.58,0,25.06,0,50.12,0,75.19v.92c-.69.37-.81-.15-.99-.57-3.12-7.36-6.24-14.72-9.36-22.08-7.4-17.46-14.81-34.92-22.22-52.38-.1-.25-.22-.49-.42-.95-.31,25.55.27,50.83,3.84,76.06Z"></path>
  <path class="cls-1" d="M490.62.8c-6.64.24-12.32,2.58-17.6,6.35V.34h41.01v6.85c-5.36-3.46-10.92-6.17-17.49-6.38v76.71h-5.92V.8Z"></path>
  <path class="cls-1" d="M271.28.81v76.71h-5.85V.81c-6.62.2-12.34,2.57-17.66,6.36V.34h41.02v6.84c-5.36-3.47-10.92-6.17-17.52-6.37Z"></path>
  <path class="cls-1" d="M0,77.5V.34h5.7v76.82c1.98-.17,3.87-.3,5.75-.49,4.28-.44,8.28-1.81,12.12-3.72,2.1-1.04,4.27-1.93,6.41-2.89.22-.1.45-.18.73-.29v7.73H0Z"></path>
  <path class="cls-1" d="M31.04,20.16c3.57-2.96,4.62-6.91,4.75-11.36-.17.06-.27.07-.35.13-1.49,1.06-3.02.82-4.12-.64-1.32-1.75-1.46-4.63-.33-6.5.68-1.12,1.66-1.76,3-1.73,1.36.04,2.26.78,2.83,1.97.85,1.8,1,3.72.91,5.66-.17,3.64-1.14,7.03-3.51,9.87-.75.9-1.75,1.58-2.65,2.35-.14.12-.36.17-.54.25Z"></path>
  <path class="cls-1" d="M301.1,1.07h29.28c-.54,2.29-1.07,4.53-1.62,6.88-1.97-1.01-3.86-1.9-5.68-2.94-3.75-2.13-7.83-2.95-12.06-3.28-1.22-.09-2.45-.15-3.67-.25-.54-.05-.77.14-.89.68-1.68,7.33-3.38,14.66-5.08,21.99-.99,4.29-1.98,8.57-2.99,12.91,6.82.05,13.31-1.6,19.96-3.45-.58,2.49-1.12,4.82-1.68,7.22-2.43-.66-4.79-1.27-7.13-1.95-3.43-.99-6.94-1.27-10.47-1.39-.46-.02-.73.06-.86.6-2.95,12.75-5.92,25.5-8.89,38.25-.02.08,0,.17,0,.38,1.69-.12,3.34-.24,4.99-.34,6.15-.39,11.71-2.75,17.29-5.08,1.48-.62,2.97-1.19,4.65-1.87-.62,2.64-1.19,5.12-1.79,7.66h-30.96c5.87-25.34,11.73-50.67,17.59-76.02Z"></path>
  <path class="cls-1" d="M398.67,1.07h29.28c-.54,2.29-1.07,4.53-1.62,6.88-1.97-1.01-3.86-1.9-5.68-2.94-3.75-2.13-7.83-2.95-12.06-3.28-1.22-.09-2.45-.15-3.67-.25-.54-.05-.77.14-.89.68-1.68,7.33-3.38,14.66-5.08,21.99-.99,4.29-1.98,8.57-2.99,12.91,6.82.05,13.31-1.6,19.96-3.45-.58,2.49-1.12,4.82-1.68,7.22-2.43-.66-4.79-1.27-7.13-1.95-3.43-.99-6.94-1.27-10.47-1.39-.46-.02-.73.06-.86.6-2.95,12.75-5.92,25.5-8.89,38.25-.02.08,0,.17,0,.38,1.69-.12,3.34-.24,4.99-.34,6.15-.39,11.71-2.75,17.29-5.08,1.48-.62,2.97-1.19,4.65-1.87-.62,2.64-1.19,5.12-1.79,7.66h-30.96c5.87-25.34,11.73-50.67,17.59-76.02Z"></path>
  <path class="cls-1" d="M199.74,77.5h-5.7v-27.31c-.35-.02-.63-.05-.92-.05-5.45,0-10.9.01-16.35-.02-.67,0-.97.24-1.24.83-3.82,8.45-6.91,17.14-8.99,26.19-.03.11-.06.22-.1.37h-4.17c12.2-25.88,24.38-51.69,36.55-77.5.08.02.16.04.25.06.22,25.8.44,51.59.67,77.44ZM194.1,11.81c-.06-.01-.12-.03-.18-.04-5.88,12.54-11.76,25.08-17.72,37.78.49,0,.8,0,1.12,0,5.21,0,10.42-.02,15.63.02.89,0,1.13-.22,1.13-1.13-.02-11.93,0-23.86.01-35.79,0-.28,0-.56,0-.84Z"></path>
  <path class="cls-1" d="M85.63,77.5h-5.7v-27.31c-.35-.02-.63-.05-.92-.05-5.45,0-10.9.01-16.35-.02-.67,0-.97.24-1.24.83-3.82,8.45-6.91,17.14-8.99,26.19-.03.11-.06.22-.1.37h-4.17C60.37,51.62,72.55,25.81,84.72,0c.08.02.16.04.25.06.22,25.8.44,51.59.67,77.44ZM79.99,11.81c-.06-.01-.12-.03-.18-.04-5.88,12.54-11.76,25.08-17.72,37.78.49,0,.8,0,1.12,0,5.21,0,10.42-.02,15.63.02.89,0,1.13-.22,1.13-1.13-.02-11.93,0-23.86.01-35.79,0-.28,0-.56,0-.84Z"></path>
</svg>